<svg xmlns="http://www.w3.org/2000/svg" xmlns:xlink="http://www.w3.org/1999/xlink" width="300" zoomAndPan="magnify" viewBox="0 0 224.87999 225" height="300" preserveAspectRatio="xMidYMid meet" version="1.0"><defs><g/><clipPath id="cad30004fc"><path d="M 6 0.0585938 L 220 0.0585938 L 220 223 L 6 223 Z M 6 0.0585938 " clip-rule="nonzero"/></clipPath><clipPath id="cbba5325cd"><path d="M -95.488281 102.640625 L 112.8125 -96.019531 L 311.472656 112.28125 L 103.171875 310.941406 Z M -95.488281 102.640625 " clip-rule="nonzero"/></clipPath><clipPath id="a5199e4faf"><path d="M 112.863281 -96.066406 L -95.4375 102.59375 L 103.222656 310.894531 L 311.523438 112.234375 Z M 112.863281 -96.066406 " clip-rule="nonzero"/></clipPath><clipPath id="58719f6683"><path d="M 112.863281 -96.066406 L -95.4375 102.59375 L 103.222656 310.894531 L 311.523438 112.234375 Z M 112.863281 -96.066406 " clip-rule="nonzero"/></clipPath></defs><g clip-path="url(#cad30004fc)"><g clip-path="url(#cbba5325cd)"><g clip-path="url(#a5199e4faf)"><g clip-path="url(#58719f6683)"><path fill="#ffffff" d="M 7.066406 78.714844 C 8.410156 100.246094 14.933594 118.765625 23.261719 135.089844 C 31.582031 151.195312 41.699219 165.097656 53.914062 182.222656 C 66.347656 199.367188 80.875 219.9375 97.679688 222.484375 C 114.574219 224.929688 133.640625 209.472656 152.761719 197.179688 C 171.996094 184.980469 191.191406 175.683594 203.3125 160.324219 C 215.222656 144.96875 220.039062 123.390625 219.96875 101.382812 C 220.09375 79.363281 215.222656 56.84375 202.160156 41.792969 C 189.121094 26.746094 167.871094 19.1875 147.132812 12.914062 C 126.496094 6.542969 106.582031 1.488281 84.472656 1.015625 C 62.273438 0.449219 37.789062 4.367188 23.71875 18.582031 C 9.570312 32.691406 5.722656 57.207031 7.066406 78.714844 " fill-opacity="1" fill-rule="nonzero"/></g></g></g></g><g fill="#ff0371" fill-opacity="1"><g transform="translate(87.998161, 88.067243)"><g><path d="M 17.828125 0 L 17.828125 -10.671875 L 1.890625 -10.671875 L 1.890625 -17.703125 L 15.9375 -46.921875 L 26.8125 -46.921875 L 26.8125 -18.421875 L 31.234375 -18.421875 L 31.171875 -10.671875 L 26.8125 -10.671875 L 26.8125 0 Z M 9.828125 -18.421875 L 17.828125 -18.421875 L 17.828125 -35.921875 Z M 9.828125 -18.421875 "/></g></g></g><g fill="#ff0371" fill-opacity="1"><g transform="translate(120.271331, 88.067243)"><g><path d="M 15.6875 0.578125 C 12.21875 0.578125 9.472656 -0.34375 7.453125 -2.1875 C 5.429688 -4.03125 3.988281 -6.78125 3.125 -10.4375 C 2.257812 -14.101562 1.828125 -18.609375 1.828125 -23.953125 C 1.828125 -28.765625 2.160156 -32.734375 2.828125 -35.859375 C 3.503906 -38.984375 4.46875 -41.429688 5.71875 -43.203125 C 6.976562 -44.984375 8.460938 -46.242188 10.171875 -46.984375 C 11.890625 -47.722656 13.789062 -48.09375 15.875 -48.09375 C 20.4375 -48.09375 23.722656 -46.570312 25.734375 -43.53125 C 27.753906 -40.5 28.804688 -36.269531 28.890625 -30.84375 L 20.375 -30.84375 C 20.28125 -34.363281 19.863281 -36.816406 19.125 -38.203125 C 18.394531 -39.585938 17.269531 -40.28125 15.75 -40.28125 C 13.800781 -40.28125 12.5 -39.03125 11.84375 -36.53125 C 11.195312 -34.039062 10.875 -29.847656 10.875 -23.953125 C 10.875 -17.921875 11.207031 -13.613281 11.875 -11.03125 C 12.550781 -8.445312 13.863281 -7.15625 15.8125 -7.15625 C 17.550781 -7.15625 18.742188 -7.96875 19.390625 -9.59375 C 20.046875 -11.226562 20.375 -13.5625 20.375 -16.59375 L 20.375 -18.671875 L 15.484375 -18.671875 L 15.484375 -25.515625 L 28.890625 -25.515625 L 28.890625 -16.328125 C 28.890625 -12.296875 28.328125 -9.039062 27.203125 -6.5625 C 26.078125 -4.09375 24.523438 -2.285156 22.546875 -1.140625 C 20.578125 0.00390625 18.289062 0.578125 15.6875 0.578125 Z M 15.6875 0.578125 "/></g></g></g><g fill="#ff0371" fill-opacity="1"><g transform="translate(39.426711, 142.617681)"><g><path d="M 2.53125 0 L 2.53125 -47.4375 L 14.515625 -47.4375 C 18.722656 -47.4375 21.738281 -46.351562 23.5625 -44.1875 C 25.382812 -42.019531 26.296875 -38.984375 26.296875 -35.078125 C 26.296875 -32.609375 25.804688 -30.4375 24.828125 -28.5625 C 23.847656 -26.695312 22.578125 -25.503906 21.015625 -24.984375 L 21.015625 -24.671875 C 23.097656 -24.015625 24.660156 -22.65625 25.703125 -20.59375 C 26.742188 -18.53125 27.265625 -16.09375 27.265625 -13.28125 C 27.265625 -9.019531 26.101562 -5.738281 23.78125 -3.4375 C 21.457031 -1.144531 18.085938 0 13.671875 0 Z M 11.390625 -27.328125 L 13.796875 -27.328125 C 15.222656 -27.328125 16.273438 -27.921875 16.953125 -29.109375 C 17.628906 -30.304688 17.96875 -31.882812 17.96875 -33.84375 C 17.96875 -38.269531 16.507812 -40.484375 13.59375 -40.484375 L 11.390625 -40.484375 Z M 11.390625 -7.09375 L 13.53125 -7.09375 C 15.226562 -7.09375 16.457031 -7.675781 17.21875 -8.84375 C 17.976562 -10.019531 18.359375 -11.800781 18.359375 -14.1875 C 18.359375 -16.488281 17.953125 -18.203125 17.140625 -19.328125 C 16.335938 -20.453125 15.222656 -21.015625 13.796875 -21.015625 L 11.390625 -21.015625 Z M 11.390625 -7.09375 "/></g></g></g><g fill="#ff0371" fill-opacity="1"><g transform="translate(67.535602, 142.617681)"><g><path d="M 15.09375 0.578125 C 10.238281 0.578125 6.8125 -1.445312 4.8125 -5.5 C 2.820312 -9.550781 1.828125 -15.632812 1.828125 -23.75 C 1.828125 -31.863281 2.851562 -37.945312 4.90625 -42 C 6.96875 -46.0625 10.539062 -48.09375 15.625 -48.09375 C 19.914062 -48.09375 23.125 -46.734375 25.25 -44.015625 C 27.375 -41.304688 28.585938 -36.914062 28.890625 -30.84375 L 20.375 -30.84375 C 20.15625 -34.144531 19.71875 -36.539062 19.0625 -38.03125 C 18.414062 -39.53125 17.289062 -40.28125 15.6875 -40.28125 C 13.726562 -40.28125 12.4375 -38.867188 11.8125 -36.046875 C 11.1875 -33.234375 10.875 -29.132812 10.875 -23.75 C 10.875 -18.070312 11.195312 -13.882812 11.84375 -11.1875 C 12.5 -8.5 13.78125 -7.15625 15.6875 -7.15625 C 17.375 -7.15625 18.53125 -7.976562 19.15625 -9.625 C 19.789062 -11.28125 20.195312 -13.710938 20.375 -16.921875 L 28.890625 -16.921875 C 28.722656 -12.578125 28.09375 -9.125 27 -6.5625 C 25.914062 -4.007812 24.375 -2.179688 22.375 -1.078125 C 20.382812 0.0234375 17.957031 0.578125 15.09375 0.578125 Z M 15.09375 0.578125 "/></g></g></g><g fill="#ff0371" fill-opacity="1"><g transform="translate(98.247166, 142.617681)"><g><path d="M 0.71875 0 L 8.984375 -47.4375 L 21.40625 -47.4375 L 29.734375 0 L 20.953125 0 L 19.453125 -9.375 L 10.9375 -9.375 L 9.4375 0 Z M 11.71875 -16.40625 L 18.609375 -16.40625 L 16.65625 -29.609375 L 15.421875 -39.046875 L 14.96875 -39.046875 L 13.859375 -29.546875 Z M 11.71875 -16.40625 "/></g></g></g><g fill="#ff0371" fill-opacity="1"><g transform="translate(128.763525, 142.617681)"><g><path d="M 0.71875 0 L 8.984375 -47.4375 L 21.40625 -47.4375 L 29.734375 0 L 20.953125 0 L 19.453125 -9.375 L 10.9375 -9.375 L 9.4375 0 Z M 11.71875 -16.40625 L 18.609375 -16.40625 L 16.65625 -29.609375 L 15.421875 -39.046875 L 14.96875 -39.046875 L 13.859375 -29.546875 Z M 11.71875 -16.40625 "/></g></g></g><g fill="#ff0371" fill-opacity="1"><g transform="translate(159.279885, 142.617681)"><g><path d="M 1.234375 -27.390625 L 1.234375 -32.140625 L 2.53125 -32.140625 C 3.925781 -32.179688 4.90625 -32.539062 5.46875 -33.21875 C 6.03125 -33.894531 6.3125 -34.816406 6.3125 -35.984375 L 6.3125 -38.328125 L 2.21875 -38.328125 L 2.21875 -47.4375 L 10.796875 -47.4375 L 10.796875 -35.59375 C 10.796875 -32.507812 10.09375 -30.394531 8.6875 -29.25 C 7.28125 -28.101562 5.445312 -27.503906 3.1875 -27.453125 Z M 1.234375 -27.390625 "/></g></g></g><g fill="#ff0371" fill-opacity="1"><g transform="translate(172.09806, 142.617681)"><g><path d="M 13.984375 0.578125 C 10.910156 0.578125 8.441406 -0.0546875 6.578125 -1.328125 C 4.710938 -2.609375 3.351562 -4.421875 2.5 -6.765625 C 1.65625 -9.109375 1.234375 -11.820312 1.234375 -14.90625 L 9.046875 -14.90625 C 9.046875 -11.601562 9.457031 -9.332031 10.28125 -8.09375 C 11.101562 -6.863281 12.253906 -6.25 13.734375 -6.25 C 15.160156 -6.25 16.164062 -6.757812 16.75 -7.78125 C 17.34375 -8.800781 17.640625 -10.15625 17.640625 -11.84375 C 17.640625 -13.363281 17.390625 -14.632812 16.890625 -15.65625 C 16.390625 -16.675781 15.628906 -17.570312 14.609375 -18.34375 C 13.585938 -19.125 12.34375 -19.953125 10.875 -20.828125 C 9.351562 -21.734375 7.882812 -22.769531 6.46875 -23.9375 C 5.0625 -25.113281 3.910156 -26.613281 3.015625 -28.4375 C 2.128906 -30.257812 1.6875 -32.601562 1.6875 -35.46875 C 1.6875 -39.757812 2.800781 -42.925781 5.03125 -44.96875 C 7.269531 -47.007812 10.171875 -48.03125 13.734375 -48.03125 C 17.804688 -48.03125 20.894531 -46.867188 23 -44.546875 C 25.101562 -42.222656 26.15625 -38.566406 26.15625 -33.578125 L 18.21875 -33.578125 C 18.21875 -36.523438 17.867188 -38.550781 17.171875 -39.65625 C 16.484375 -40.769531 15.46875 -41.328125 14.125 -41.328125 C 12.820312 -41.328125 11.890625 -40.835938 11.328125 -39.859375 C 10.765625 -38.878906 10.484375 -37.585938 10.484375 -35.984375 C 10.484375 -34.421875 10.71875 -33.148438 11.1875 -32.171875 C 11.664062 -31.203125 12.378906 -30.359375 13.328125 -29.640625 C 14.285156 -28.921875 15.460938 -28.148438 16.859375 -27.328125 C 18.585938 -26.335938 20.191406 -25.203125 21.671875 -23.921875 C 23.148438 -22.640625 24.34375 -21.097656 25.25 -19.296875 C 26.15625 -17.492188 26.609375 -15.25 26.609375 -12.5625 C 26.609375 -8.09375 25.476562 -4.785156 23.21875 -2.640625 C 20.96875 -0.492188 17.890625 0.578125 13.984375 0.578125 Z M 13.984375 0.578125 "/></g></g></g></svg>