<svg width="260" height="90" viewBox="0 0 260 90" fill="none" xmlns="http://www.w3.org/2000/svg">
<path d="M55.5213 0H66.1095V54.9465H55.5213V0Z" fill="#F2CBFE"/>
<path d="M176.475 0H165.886V54.9465H176.475V0Z" fill="#F2CBFE"/>
<path d="M210.603 15.7665L190.086 33.2759L212.476 54.9465H199.037L176.719 32.9521L196.186 15.7665H210.603Z" fill="#F2CBFE"/>
<path d="M133.432 41.9389H123.658C123.549 42.6745 123.658 43.6207 123.984 44.7768C124.31 45.933 124.907 47.168 125.775 48.482C126.698 49.7433 127.975 50.952 129.603 52.1081C131.233 53.2119 133.269 54.1316 135.713 54.8674C138.211 55.5505 141.17 55.8922 144.59 55.8922C148.446 55.8922 151.758 55.4454 154.528 54.5521C157.297 53.6062 159.415 52.2658 160.881 50.5315C162.402 48.7972 163.161 46.6688 163.161 44.1461C163.161 42.0966 162.7 40.4148 161.777 39.1008C160.908 37.7344 159.713 36.6571 158.193 35.8686C156.673 35.0279 154.935 34.3445 152.98 33.8191C151.08 33.2935 149.07 32.8205 146.952 32.4C145.94 32.2296 144.995 32.0635 144.117 31.9017C142.828 31.6645 141.683 31.4364 140.681 31.2175L140.509 31.1781L140.224 31.1092L140.134 31.0866L139.929 31.0336L139.734 30.9799C138.56 30.6529 137.626 30.2591 136.934 29.7986C136.677 29.5991 136.459 29.3761 136.284 29.1293L136.225 29.0442L136.166 28.9498C136.112 28.8624 136.063 28.7721 136.02 28.6793C135.815 28.2448 135.713 27.7508 135.713 27.1972C135.713 25.8306 136.391 24.7533 137.749 23.9651C139.106 23.1766 141.116 22.7824 143.776 22.7824C146.491 22.7824 148.501 23.2292 149.803 24.1225C151.107 24.9635 151.975 26.3562 152.41 28.3008H161.777C161.777 25.6729 161.098 23.3606 159.741 21.3634C158.437 19.3137 156.455 17.7371 153.794 16.6335C151.134 15.4774 147.795 14.8992 143.776 14.8992C141.116 14.8992 138.618 15.162 136.282 15.6876C134.002 16.213 131.993 16.9752 130.255 17.9736C128.572 18.9723 127.241 20.2073 126.264 21.6788C125.341 23.1503 124.879 24.8321 124.879 26.7241C124.879 28.6687 125.341 30.3242 126.264 31.6906C127.241 33.0044 128.545 34.108 130.174 35.0016C131.803 35.8424 133.676 36.5257 135.794 37.0513C137.912 37.5767 140.111 38.0235 142.391 38.3914C144.672 38.7068 146.546 39.0482 148.012 39.4161C149.477 39.7841 150.563 40.2834 151.269 40.9139C151.975 41.4921 152.329 42.3329 152.329 43.4367C152.329 44.33 152.112 45.1447 151.677 45.8804C151.243 46.5637 150.455 47.0893 149.314 47.4571C148.175 47.825 146.572 48.0089 144.509 48.0089C141.468 48.0089 138.998 47.4571 137.097 46.3535C135.251 45.1973 134.029 43.7258 133.432 41.9389Z" fill="#F2CBFE"/>
<path fill-rule="evenodd" clip-rule="evenodd" d="M21.6661 55.8133C17.6474 55.8133 13.982 54.9726 10.6701 53.2908C7.41168 51.5565 4.80579 49.1651 2.85071 46.1169C0.949941 43.0162 0 39.4424 0 35.3958C0 31.2438 0.97754 27.6437 2.93262 24.5956C4.88681 21.5474 7.52029 19.1823 10.8331 17.5006C14.1993 15.7662 18.0008 14.8992 22.2359 14.8992C26.9064 14.8992 30.6527 15.8188 33.4767 17.6583C36.3542 19.4452 38.4446 21.8891 39.748 24.9898C39.8121 25.1434 39.8753 25.2978 39.9367 25.4532L40.0516 25.7498L40.1993 26.1513C40.2661 26.3385 40.3311 26.527 40.3934 26.7166C40.4816 26.9833 40.5653 27.2523 40.6445 27.5242V15.7662H51.2327V54.9463H41.3772L41.1324 53.4485C41.0238 52.3972 40.916 51.0834 40.8074 49.5068C40.6988 47.9301 40.6445 46.3797 40.6445 44.8557V42.2256L40.5626 42.4906C39.8023 44.8557 38.6351 47.063 37.0602 49.1125C35.4852 51.1097 33.4224 52.7389 30.87 54.0002C28.3175 55.2091 25.2496 55.8133 21.6661 55.8133ZM23.2633 47.9301C26.4675 47.9301 29.2363 47.4045 31.5715 46.3535C33.9068 45.3024 35.6989 43.8307 36.9471 41.9389C38.1962 40.0469 38.8212 37.8658 38.8212 35.3958C38.8212 33.3485 38.441 31.5465 37.6807 29.9899C36.6586 32.082 34.4579 33.5294 31.9081 33.5294C28.3834 33.5294 25.5264 30.7641 25.5264 27.3529C25.5264 25.7306 26.1728 24.2541 27.2296 23.1521C25.9974 22.9582 24.6753 22.8612 23.2633 22.8612C18.7567 22.8612 15.2543 24.0174 12.7561 26.3299C10.2588 28.5899 9.00975 31.6118 9.00975 35.3958C9.00975 37.9183 9.60714 40.1257 10.8019 42.0177C11.9958 43.857 13.6526 45.3024 15.7697 46.3535C17.942 47.4045 20.4402 47.9301 23.2633 47.9301Z" fill="#F2CBFE"/>
<path fill-rule="evenodd" clip-rule="evenodd" d="M90.9522 55.8133C86.9334 55.8133 83.2681 54.9726 79.9562 53.2908C76.6977 51.5565 74.0919 49.1651 72.1368 46.1169C70.236 43.0162 69.2861 39.4424 69.2861 35.3958C69.2861 31.2438 70.2636 27.6437 72.2187 24.5956C74.1729 21.5474 76.8064 19.1823 80.1191 17.5006C83.4853 15.7662 87.2869 14.8992 91.522 14.8992C96.1925 14.8992 99.9388 15.8188 102.763 17.6583C105.64 19.4452 107.731 21.8891 109.034 24.9898C109.379 25.809 109.677 26.6537 109.931 27.5242V15.7662H120.519V54.9463H110.663L110.418 53.4485C110.31 52.3972 110.202 51.0834 110.093 49.5068C110.056 48.9613 110.025 48.4189 110 47.8797C109.954 46.8606 109.931 45.8524 109.931 44.8557V42.2256L109.849 42.4906C109.088 44.8557 107.921 47.063 106.346 49.1125C104.771 51.1097 102.709 52.7389 100.156 54.0002C97.6036 55.2091 94.5356 55.8133 90.9522 55.8133ZM92.5494 47.9301C95.7535 47.9301 98.5223 47.4045 100.858 46.3535C103.193 45.3024 104.985 43.8307 106.233 41.9389C107.482 40.0469 108.107 37.8658 108.107 35.3958C108.107 33.3485 107.727 31.5465 106.967 29.9899C105.945 32.082 103.744 33.5294 101.194 33.5294C97.6694 33.5294 94.8125 30.7641 94.8125 27.3529C94.8125 25.7306 95.4589 24.2541 96.5156 23.1521C95.2835 22.9582 93.9614 22.8612 92.5494 22.8612C88.0427 22.8612 84.5403 24.0174 82.0422 26.3299C79.5449 28.5899 78.2958 31.6118 78.2958 35.3958C78.2958 37.9183 78.8932 40.1257 80.088 42.0177C81.2819 43.857 82.9387 45.3024 85.0558 46.3535C87.2281 47.4045 89.7263 47.9301 92.5494 47.9301Z" fill="#F2CBFE"/>
<path fill-rule="evenodd" clip-rule="evenodd" d="M229.524 55.8133C225.506 55.8133 221.84 54.9726 218.528 53.2908C215.27 51.5565 212.664 49.1651 210.709 46.1169C208.808 43.0162 207.858 39.4424 207.858 35.3958C207.858 31.2438 208.836 27.6437 210.791 24.5956C212.745 21.5474 215.378 19.1823 218.691 17.5006C222.057 15.7662 225.859 14.8992 230.094 14.8992C234.765 14.8992 238.511 15.8188 241.335 17.6583C244.212 19.4452 246.303 21.8891 247.606 24.9898C247.951 25.809 248.249 26.6537 248.503 27.5242V15.7662H259.091V54.9463H249.235L248.991 53.4485C248.935 52.9151 248.881 52.3143 248.826 51.6456C248.772 50.9966 248.719 50.2835 248.666 49.5068C248.557 47.9301 248.503 46.3797 248.503 44.8557V42.2256L248.421 42.4906C247.66 44.8557 246.493 47.063 244.918 49.1125C243.343 51.1097 241.281 52.7389 238.728 54.0002C236.176 55.2091 233.108 55.8133 229.524 55.8133ZM231.122 47.9301C234.326 47.9301 237.094 47.4045 239.43 46.3535C241.765 45.3024 243.557 43.8307 244.805 41.9389C246.054 40.0469 246.679 37.8658 246.679 35.3958C246.679 32.7153 246.028 30.4556 244.724 28.6161C243.475 26.7241 241.683 25.3052 239.349 24.3591C237.068 23.3606 234.326 22.8612 231.122 22.8612C226.615 22.8612 223.112 24.0174 220.614 26.3299C218.117 28.5899 216.868 31.6118 216.868 35.3958C216.868 37.9183 217.465 40.1257 218.66 42.0177C219.854 43.857 221.511 45.3024 223.628 46.3535C225.8 47.4045 228.298 47.9301 231.122 47.9301Z" fill="#F2CBFE"/>
<path d="M96.8572 63.4523C88.6971 70.166 78.7604 75.0151 67.9046 77.508C57.0478 80.0011 45.665 80.0464 34.7829 77.639L32.3452 87.961C44.861 90.7298 57.9419 90.678 70.4302 87.8102C82.9185 84.9425 94.429 79.3471 103.943 71.5196L96.8572 63.4523Z" fill="#F2CBFE"/>
</svg>
