<svg xmlns="http://www.w3.org/2000/svg" xmlns:xlink="http://www.w3.org/1999/xlink" width="300" zoomAndPan="magnify" viewBox="0 0 224.87999 225" height="300" preserveAspectRatio="xMidYMid meet" version="1.0"><defs><g/></defs><path fill="#ffffff" d="M 170.03125 26.070312 C 190.367188 34.824219 213.113281 44.089844 220.011719 60.257812 C 227.046875 76.429688 218.089844 99.484375 214.234375 123.082031 C 210.367188 146.691406 211.582031 170.707031 200.625 185.292969 C 189.800781 199.890625 166.796875 205.195312 145.027344 209.050781 C 123.269531 212.773438 102.757812 215.046875 81.882812 211.824219 C 61.140625 208.59375 40.03125 199.878906 25.042969 184.792969 C 10.050781 169.71875 1.160156 148.015625 2.769531 127.828125 C 4.246094 107.535156 16.21875 88.753906 27.164062 71.179688 C 38.113281 53.738281 48.027344 37.785156 62.25 26.246094 C 76.617188 14.824219 95.289062 7.828125 113.597656 8.574219 C 131.890625 9.195312 149.695312 17.3125 170.03125 26.070312 " fill-opacity="1" fill-rule="nonzero"/><g fill="#ff0371" fill-opacity="1"><g transform="translate(80.813676, 107.686734)"><g><path d="M 17.828125 0 L 17.828125 -10.671875 L 1.890625 -10.671875 L 1.890625 -17.703125 L 15.9375 -46.921875 L 26.8125 -46.921875 L 26.8125 -18.421875 L 31.234375 -18.421875 L 31.171875 -10.671875 L 26.8125 -10.671875 L 26.8125 0 Z M 9.828125 -18.421875 L 17.828125 -18.421875 L 17.828125 -35.921875 Z M 9.828125 -18.421875 "/></g></g></g><g fill="#ff0371" fill-opacity="1"><g transform="translate(113.086845, 107.686734)"><g><path d="M 15.6875 0.578125 C 12.21875 0.578125 9.472656 -0.34375 7.453125 -2.1875 C 5.429688 -4.03125 3.988281 -6.78125 3.125 -10.4375 C 2.257812 -14.101562 1.828125 -18.609375 1.828125 -23.953125 C 1.828125 -28.765625 2.160156 -32.734375 2.828125 -35.859375 C 3.503906 -38.984375 4.46875 -41.429688 5.71875 -43.203125 C 6.976562 -44.984375 8.460938 -46.242188 10.171875 -46.984375 C 11.890625 -47.722656 13.789062 -48.09375 15.875 -48.09375 C 20.4375 -48.09375 23.722656 -46.570312 25.734375 -43.53125 C 27.753906 -40.5 28.804688 -36.269531 28.890625 -30.84375 L 20.375 -30.84375 C 20.28125 -34.363281 19.863281 -36.816406 19.125 -38.203125 C 18.394531 -39.585938 17.269531 -40.28125 15.75 -40.28125 C 13.800781 -40.28125 12.5 -39.03125 11.84375 -36.53125 C 11.195312 -34.039062 10.875 -29.847656 10.875 -23.953125 C 10.875 -17.921875 11.207031 -13.613281 11.875 -11.03125 C 12.550781 -8.445312 13.863281 -7.15625 15.8125 -7.15625 C 17.550781 -7.15625 18.742188 -7.96875 19.390625 -9.59375 C 20.046875 -11.226562 20.375 -13.5625 20.375 -16.59375 L 20.375 -18.671875 L 15.484375 -18.671875 L 15.484375 -25.515625 L 28.890625 -25.515625 L 28.890625 -16.328125 C 28.890625 -12.296875 28.328125 -9.039062 27.203125 -6.5625 C 26.078125 -4.09375 24.523438 -2.285156 22.546875 -1.140625 C 20.578125 0.00390625 18.289062 0.578125 15.6875 0.578125 Z M 15.6875 0.578125 "/></g></g></g><g fill="#ff0371" fill-opacity="1"><g transform="translate(53.350438, 162.237172)"><g><path d="M 2.53125 0 L 2.53125 -47.4375 L 22.125 -47.4375 L 22.125 -39.625 L 11.71875 -39.625 L 11.71875 -26.609375 L 20.828125 -26.609375 L 20.828125 -19.140625 L 11.71875 -19.140625 L 11.71875 0 Z M 2.53125 0 "/></g></g></g><g fill="#ff0371" fill-opacity="1"><g transform="translate(76.319042, 162.237172)"><g><path d="M 2.53125 0 L 2.53125 -47.4375 L 11.78125 -47.4375 L 11.78125 0 Z M 2.53125 0 "/></g></g></g><g fill="#ff0371" fill-opacity="1"><g transform="translate(90.633751, 162.237172)"><g><path d="M 2.53125 0 L 2.53125 -47.4375 L 14.515625 -47.4375 C 18.722656 -47.4375 21.738281 -46.351562 23.5625 -44.1875 C 25.382812 -42.019531 26.296875 -38.984375 26.296875 -35.078125 C 26.296875 -32.609375 25.804688 -30.4375 24.828125 -28.5625 C 23.847656 -26.695312 22.578125 -25.503906 21.015625 -24.984375 L 21.015625 -24.671875 C 23.097656 -24.015625 24.660156 -22.65625 25.703125 -20.59375 C 26.742188 -18.53125 27.265625 -16.09375 27.265625 -13.28125 C 27.265625 -9.019531 26.101562 -5.738281 23.78125 -3.4375 C 21.457031 -1.144531 18.085938 0 13.671875 0 Z M 11.390625 -27.328125 L 13.796875 -27.328125 C 15.222656 -27.328125 16.273438 -27.921875 16.953125 -29.109375 C 17.628906 -30.304688 17.96875 -31.882812 17.96875 -33.84375 C 17.96875 -38.269531 16.507812 -40.484375 13.59375 -40.484375 L 11.390625 -40.484375 Z M 11.390625 -7.09375 L 13.53125 -7.09375 C 15.226562 -7.09375 16.457031 -7.675781 17.21875 -8.84375 C 17.976562 -10.019531 18.359375 -11.800781 18.359375 -14.1875 C 18.359375 -16.488281 17.953125 -18.203125 17.140625 -19.328125 C 16.335938 -20.453125 15.222656 -21.015625 13.796875 -21.015625 L 11.390625 -21.015625 Z M 11.390625 -7.09375 "/></g></g></g><g fill="#ff0371" fill-opacity="1"><g transform="translate(118.742641, 162.237172)"><g><path d="M 2.53125 0 L 2.53125 -47.4375 L 22.328125 -47.4375 L 22.328125 -39.625 L 11.328125 -39.625 L 11.328125 -27.921875 L 21.078125 -27.921875 L 21.078125 -20.625 L 11.328125 -20.625 L 11.328125 -7.8125 L 22.328125 -7.8125 L 22.328125 0 Z M 2.53125 0 "/></g></g></g><g fill="#ff0371" fill-opacity="1"><g transform="translate(142.296844, 162.237172)"><g><path d="M 2.53125 0 L 2.53125 -47.4375 L 14.3125 -47.4375 C 17.132812 -47.4375 19.578125 -47.015625 21.640625 -46.171875 C 23.703125 -45.328125 25.285156 -43.914062 26.390625 -41.9375 C 27.492188 -39.96875 28.046875 -37.3125 28.046875 -33.96875 C 28.046875 -31.019531 27.566406 -28.578125 26.609375 -26.640625 C 25.660156 -24.710938 24.335938 -23.425781 22.640625 -22.78125 L 22.640625 -22.328125 C 24.378906 -21.972656 25.59375 -20.925781 26.28125 -19.1875 C 26.976562 -17.457031 27.328125 -15.3125 27.328125 -12.75 L 27.328125 -4.8125 C 27.328125 -2.988281 27.476562 -1.382812 27.78125 0 L 18.8125 0 C 18.59375 -0.695312 18.445312 -1.457031 18.375 -2.28125 C 18.3125 -3.101562 18.28125 -3.796875 18.28125 -4.359375 L 18.28125 -11.90625 C 18.28125 -13.6875 18.0625 -15.128906 17.625 -16.234375 C 17.195312 -17.335938 16.351562 -17.890625 15.09375 -17.890625 L 11.390625 -17.890625 L 11.390625 0 Z M 11.390625 -24.921875 L 13.984375 -24.921875 C 15.941406 -24.921875 17.273438 -25.582031 17.984375 -26.90625 C 18.703125 -28.226562 19.0625 -30.019531 19.0625 -32.28125 C 19.0625 -34.789062 18.671875 -36.640625 17.890625 -37.828125 C 17.109375 -39.023438 15.742188 -39.625 13.796875 -39.625 L 11.390625 -39.625 Z M 11.390625 -24.921875 "/></g></g></g></svg>