<svg width="269" height="90" viewBox="0 0 269 90" fill="none" xmlns="http://www.w3.org/2000/svg">
<path d="M259.181 20.5122H268.971L248.552 78.5993C247.993 80.2154 247.34 81.5829 246.594 82.7017C245.91 83.8827 245.071 84.8151 244.077 85.4988C243.144 86.2448 241.994 86.7731 240.627 87.0839C239.259 87.4568 237.643 87.6433 235.778 87.6433H229.904V79.3452H238.109L240.907 71.1403L223.285 20.5122H233.448L243.144 49.0429L245.941 59.5788H246.408L249.484 49.0429L259.181 20.5122Z" fill="#2C60F5"/>
<path d="M104.834 68.9959C101.353 68.9959 98.7425 68.1256 97.002 66.3852C95.3238 64.5826 94.4846 62.0963 94.4846 58.9262V0H104.648V60.6977H111.361V68.9959H104.834Z" fill="#2C60F5"/>
<path d="M108.309 20.5123H118.192L123.134 40.8381L127.516 59.2059H127.796L132.831 40.8381L138.705 20.5123H147.842L153.809 40.8381L158.937 59.2059H159.217L163.506 40.8381L168.541 20.5123H177.958L164.905 68.9959H153.436L147.096 46.8985L143.18 33.2858H142.994L139.171 46.8985L132.738 68.9959H121.549L108.309 20.5123Z" fill="#2C60F5"/>
<path d="M46.6189 74.8027C46.6189 79.8375 44.692 83.6292 40.8381 86.1776C36.9843 88.7261 30.7063 90.0004 22.0041 90.0004C18.026 90.0004 14.6384 89.7207 11.8412 89.1612C9.10627 88.664 6.83749 87.9181 5.03489 86.9235C3.29446 85.929 2.02021 84.7169 1.21215 83.2873C0.404091 81.8576 6.10352e-05 80.2104 6.10352e-05 78.3457C6.10352e-05 75.6729 0.714883 73.5906 2.14453 72.0988C3.63633 70.6069 5.68756 69.5813 8.29821 69.0219V67.9963C4.63086 66.8153 2.79719 64.3289 2.79719 60.5373C2.79719 58.0509 3.63633 56.1551 5.31461 54.8498C6.99288 53.4823 9.01303 52.5188 11.3751 51.9594V51.5865C8.51577 50.219 6.30914 48.3232 4.75518 45.899C3.26338 43.4126 2.51748 40.5223 2.51748 37.2279C2.51748 32.2552 4.16468 28.246 7.45907 25.2002C10.8156 22.1545 15.6018 20.6316 21.8177 20.6316C25.2364 20.6316 28.1578 21.1288 30.582 22.1234V20.818C30.582 18.6425 31.0793 16.9642 32.0738 15.7832C33.1305 14.54 34.7466 13.9185 36.9222 13.9185H44.3812V22.1234H34.498V24.0814C36.6735 25.511 38.3518 27.3758 39.5328 29.6756C40.7138 31.9133 41.3043 34.4307 41.3043 37.2279C41.3043 42.1384 39.6261 46.1165 36.2695 49.1623C32.9129 52.1459 28.1268 53.6377 21.9109 53.6377C19.5489 53.6377 17.4355 53.3891 15.5707 52.8918C14.3276 53.3269 13.2398 53.9485 12.3074 54.7565C11.3751 55.5025 10.9089 56.497 10.9089 57.7402C10.9089 59.0455 11.4994 59.9779 12.6804 60.5373C13.8614 61.0967 15.5397 61.3764 17.7152 61.3764H29.6496C35.6168 61.3764 39.9369 62.5885 42.6097 65.0127C45.2825 67.3747 46.6189 70.638 46.6189 74.8027ZM37.1086 75.9215C37.1086 74.2432 36.456 72.9068 35.1507 71.9123C33.9075 70.9177 31.6076 70.4205 28.2511 70.4205H11.8412C9.60354 71.7258 8.48469 73.5906 8.48469 76.0147C8.48469 78.0038 9.26167 79.5888 10.8156 80.7699C12.4317 82.013 15.1356 82.6346 18.9273 82.6346H25.2675C33.1616 82.6346 37.1086 80.3969 37.1086 75.9215ZM21.9109 46.2719C24.8945 46.2719 27.1944 45.6193 28.8105 44.3139C30.4888 42.9464 31.3279 40.8641 31.3279 38.067V36.2023C31.3279 33.4051 30.4888 31.3539 28.8105 30.0486C27.1944 28.6811 24.8945 27.9973 21.9109 27.9973C18.9273 27.9973 16.5964 28.6811 14.9181 30.0486C13.302 31.3539 12.4939 33.4051 12.4939 36.2023V38.067C12.4939 40.8641 13.302 42.9464 14.9181 44.3139C16.5964 45.6193 18.9273 46.2719 21.9109 46.2719Z" fill="#2C60F5"/>
<path d="M197.404 68.9953C194.233 68.9953 191.327 68.4331 188.685 67.3088C186.102 66.1845 183.9 64.5868 182.08 62.5157C180.26 60.3854 178.851 57.8409 177.853 54.8822C176.855 51.8643 176.356 48.5209 176.356 44.8521C176.356 41.1833 176.855 37.8695 177.853 34.9108C178.851 31.8929 180.26 29.3484 182.08 27.2773C183.9 25.1471 186.102 23.5198 188.685 22.3955C191.327 21.2711 194.233 20.709 197.404 20.709C200.574 20.709 203.451 21.2711 206.034 22.3955C208.676 23.5198 210.907 25.1471 212.727 27.2773C214.547 29.3484 215.956 31.8929 216.954 34.9108C217.953 37.8695 218.452 41.1833 218.452 44.8521C218.452 48.5209 217.953 51.8643 216.954 54.8822C215.956 57.8409 214.547 60.3854 212.727 62.5157C210.907 64.5868 208.676 66.1845 206.034 67.3088C203.451 68.4331 200.574 68.9953 197.404 68.9953ZM197.404 61.0067C200.692 61.0067 203.334 60.0008 205.33 57.9888C207.326 55.9177 208.324 52.8407 208.324 48.7576V40.9466C208.324 36.8636 207.326 33.8161 205.33 31.8042C203.334 29.7331 200.692 28.6975 197.404 28.6975C194.116 28.6975 191.474 29.7331 189.478 31.8042C187.482 33.8161 186.483 36.8636 186.483 40.9466V48.7576C186.483 52.8407 187.482 55.9177 189.478 57.9888C191.474 60.0008 194.116 61.0067 197.404 61.0067Z" fill="#2C60F5"/>
<path d="M211.997 67.4073C213.426 68.8991 215.477 69.645 218.15 69.645H223.838V61.3469H218.71V19.4714L208.547 19.4712L209.386 61.5334C209.697 63.8954 210.567 65.8534 211.997 67.4073Z" fill="#2C60F5"/>
<path d="M63.6881 68.9953C60.5177 68.9953 57.6115 68.4331 54.9695 67.3088C52.3862 66.1845 50.1845 64.5868 48.3645 62.5157C46.5445 60.3854 45.1354 57.8409 44.1373 54.8822C43.1392 51.8643 42.6402 48.5209 42.6402 44.8521C42.6402 41.1833 43.1392 37.8695 44.1373 34.9108C45.1354 31.8929 46.5445 29.3484 48.3645 27.2773C50.1845 25.1471 52.3862 23.5198 54.9695 22.3955C57.6115 21.2711 60.5177 20.709 63.6881 20.709C66.8585 20.709 69.7353 21.2711 72.3186 22.3955C74.9606 23.5198 77.1916 25.1471 79.0116 27.2773C80.8316 29.3484 82.2407 31.8929 83.2388 34.9108C84.2369 37.8695 84.7359 41.1833 84.7359 44.8521C84.7359 48.5209 84.2369 51.8643 83.2388 54.8822C82.2407 57.8409 80.8316 60.3854 79.0116 62.5157C77.1916 64.5868 74.9606 66.1845 72.3186 67.3088C69.7353 68.4331 66.8585 68.9953 63.6881 68.9953ZM63.6881 61.0067C66.9759 61.0067 69.6179 60.0008 71.614 57.9888C73.6102 55.9177 74.6083 52.8407 74.6083 48.7576V40.9466C74.6083 36.8636 73.6102 33.8161 71.614 31.8042C69.6179 29.7331 66.9759 28.6975 63.6881 28.6975C60.4002 28.6975 57.7583 29.7331 55.7621 31.8042C53.7659 33.8161 52.7678 36.8636 52.7678 40.9466V48.7576C52.7678 52.8407 53.7659 55.9177 55.7621 57.9888C57.7583 60.0008 60.4002 61.0067 63.6881 61.0067Z" fill="#2C60F5"/>
<path d="M78.2804 67.4073C79.7101 68.8991 81.7613 69.645 84.4341 69.645H90.1216V61.3469H84.9935V19.4714L74.8306 19.4712L75.6698 61.5334C75.9806 63.8954 76.8508 65.8534 78.2804 67.4073Z" fill="#2C60F5"/>
<rect x="215.177" y="78.4497" width="8.96571" height="8.96571" fill="#2C60F5"/>
<rect x="154.658" y="78.4497" width="56.0357" height="8.96571" fill="url(#paint0_linear_1121_134)"/>
<defs>
<linearGradient id="paint0_linear_1121_134" x1="210.694" y1="87.4154" x2="156.9" y2="87.4154" gradientUnits="userSpaceOnUse">
<stop stop-color="#2666F2"/>
<stop offset="1" stop-color="#2666F2" stop-opacity="0"/>
</linearGradient>
</defs>
</svg>
