<svg xmlns="http://www.w3.org/2000/svg" xmlns:xlink="http://www.w3.org/1999/xlink" width="300" zoomAndPan="magnify" viewBox="0 0 224.87999 225" height="300" preserveAspectRatio="xMidYMid meet" version="1.0"><defs><g/></defs><path fill="#ffffff" d="M 177.59375 23.941406 C 191.816406 31.429688 198.578125 52.386719 206.558594 71.953125 C 214.546875 91.652344 223.757812 110.070312 223.09375 128.421875 C 222.550781 146.769531 212.007812 165.054688 198.183594 179.53125 C 184.355469 193.886719 167.234375 204.667969 149.414062 206.730469 C 131.710938 208.78125 113.441406 202.367188 95.261719 196.597656 C 77.070312 190.828125 58.851562 185.839844 42.378906 174.847656 C 25.910156 163.851562 11.15625 146.996094 7.558594 127.851562 C 3.945312 108.734375 11.339844 87.445312 20.246094 66.371094 C 29.148438 45.292969 39.429688 24.296875 56.234375 17.960938 C 73.023438 11.503906 96.441406 19.8125 119.011719 21.054688 C 141.554688 22.285156 163.242188 16.4375 177.59375 23.941406 " fill-opacity="1" fill-rule="nonzero"/><g fill="#ff0371" fill-opacity="1"><g transform="translate(64.293445, 98.371749)"><g><path d="M 1.359375 0 L 1.359375 -6.890625 L 15.6875 -39.5625 L 2.140625 -39.5625 L 2.140625 -47.4375 L 25.703125 -47.4375 L 25.703125 -40.546875 L 11.328125 -7.875 L 25.84375 -7.875 L 25.84375 0 Z M 1.359375 0 "/></g></g></g><g fill="#ff0371" fill-opacity="1"><g transform="translate(91.491401, 98.371749)"><g><path d="M 2.53125 0 L 2.53125 -47.4375 L 22.328125 -47.4375 L 22.328125 -39.625 L 11.328125 -39.625 L 11.328125 -27.921875 L 21.078125 -27.921875 L 21.078125 -20.625 L 11.328125 -20.625 L 11.328125 -7.8125 L 22.328125 -7.8125 L 22.328125 0 Z M 2.53125 0 "/></g></g></g><g fill="#ff0371" fill-opacity="1"><g transform="translate(115.045604, 98.371749)"><g><path d="M 2.53125 0 L 2.53125 -47.4375 L 14.3125 -47.4375 C 17.132812 -47.4375 19.578125 -47.015625 21.640625 -46.171875 C 23.703125 -45.328125 25.285156 -43.914062 26.390625 -41.9375 C 27.492188 -39.96875 28.046875 -37.3125 28.046875 -33.96875 C 28.046875 -31.019531 27.566406 -28.578125 26.609375 -26.640625 C 25.660156 -24.710938 24.335938 -23.425781 22.640625 -22.78125 L 22.640625 -22.328125 C 24.378906 -21.972656 25.59375 -20.925781 26.28125 -19.1875 C 26.976562 -17.457031 27.328125 -15.3125 27.328125 -12.75 L 27.328125 -4.8125 C 27.328125 -2.988281 27.476562 -1.382812 27.78125 0 L 18.8125 0 C 18.59375 -0.695312 18.445312 -1.457031 18.375 -2.28125 C 18.3125 -3.101562 18.28125 -3.796875 18.28125 -4.359375 L 18.28125 -11.90625 C 18.28125 -13.6875 18.0625 -15.128906 17.625 -16.234375 C 17.195312 -17.335938 16.351562 -17.890625 15.09375 -17.890625 L 11.390625 -17.890625 L 11.390625 0 Z M 11.390625 -24.921875 L 13.984375 -24.921875 C 15.941406 -24.921875 17.273438 -25.582031 17.984375 -26.90625 C 18.703125 -28.226562 19.0625 -30.019531 19.0625 -32.28125 C 19.0625 -34.789062 18.671875 -36.640625 17.890625 -37.828125 C 17.109375 -39.023438 15.742188 -39.625 13.796875 -39.625 L 11.390625 -39.625 Z M 11.390625 -24.921875 "/></g></g></g><g fill="#ff0371" fill-opacity="1"><g transform="translate(144.260634, 98.371749)"><g><path d="M 15.625 0.578125 C 10.582031 0.578125 7.019531 -1.4375 4.9375 -5.46875 C 2.863281 -9.5 1.828125 -15.59375 1.828125 -23.75 C 1.828125 -31.90625 2.863281 -38 4.9375 -42.03125 C 7.019531 -46.070312 10.582031 -48.09375 15.625 -48.09375 C 20.695312 -48.09375 24.273438 -46.0625 26.359375 -42 C 28.441406 -37.945312 29.484375 -31.863281 29.484375 -23.75 C 29.484375 -15.59375 28.441406 -9.5 26.359375 -5.46875 C 24.273438 -1.4375 20.695312 0.578125 15.625 0.578125 Z M 15.625 -7.15625 C 17.613281 -7.15625 18.921875 -8.578125 19.546875 -11.421875 C 20.179688 -14.265625 20.5 -18.375 20.5 -23.75 C 20.5 -29.476562 20.148438 -33.664062 19.453125 -36.3125 C 18.765625 -38.957031 17.488281 -40.28125 15.625 -40.28125 C 13.664062 -40.28125 12.382812 -38.867188 11.78125 -36.046875 C 11.175781 -33.234375 10.875 -29.132812 10.875 -23.75 C 10.875 -18.019531 11.195312 -13.820312 11.84375 -11.15625 C 12.5 -8.488281 13.757812 -7.15625 15.625 -7.15625 Z M 15.625 -7.15625 "/></g></g></g><g fill="#ff0371" fill-opacity="1"><g transform="translate(48.775651, 152.922188)"><g><path d="M 15.6875 0.578125 C 12.21875 0.578125 9.472656 -0.34375 7.453125 -2.1875 C 5.429688 -4.03125 3.988281 -6.78125 3.125 -10.4375 C 2.257812 -14.101562 1.828125 -18.609375 1.828125 -23.953125 C 1.828125 -28.765625 2.160156 -32.734375 2.828125 -35.859375 C 3.503906 -38.984375 4.46875 -41.429688 5.71875 -43.203125 C 6.976562 -44.984375 8.460938 -46.242188 10.171875 -46.984375 C 11.890625 -47.722656 13.789062 -48.09375 15.875 -48.09375 C 20.4375 -48.09375 23.722656 -46.570312 25.734375 -43.53125 C 27.753906 -40.5 28.804688 -36.269531 28.890625 -30.84375 L 20.375 -30.84375 C 20.28125 -34.363281 19.863281 -36.816406 19.125 -38.203125 C 18.394531 -39.585938 17.269531 -40.28125 15.75 -40.28125 C 13.800781 -40.28125 12.5 -39.03125 11.84375 -36.53125 C 11.195312 -34.039062 10.875 -29.847656 10.875 -23.953125 C 10.875 -17.921875 11.207031 -13.613281 11.875 -11.03125 C 12.550781 -8.445312 13.863281 -7.15625 15.8125 -7.15625 C 17.550781 -7.15625 18.742188 -7.96875 19.390625 -9.59375 C 20.046875 -11.226562 20.375 -13.5625 20.375 -16.59375 L 20.375 -18.671875 L 15.484375 -18.671875 L 15.484375 -25.515625 L 28.890625 -25.515625 L 28.890625 -16.328125 C 28.890625 -12.296875 28.328125 -9.039062 27.203125 -6.5625 C 26.078125 -4.09375 24.523438 -2.285156 22.546875 -1.140625 C 20.578125 0.00390625 18.289062 0.578125 15.6875 0.578125 Z M 15.6875 0.578125 "/></g></g></g><g fill="#ff0371" fill-opacity="1"><g transform="translate(79.747478, 152.922188)"><g><path d="M 2.53125 0 L 2.53125 -47.4375 L 15.15625 -47.4375 L 19.453125 -16.65625 L 19.90625 -16.65625 L 24.203125 -47.4375 L 36.96875 -47.4375 L 36.96875 0 L 28.5 0 L 28.5 -15.234375 L 28.640625 -36.25 L 28.25 -36.25 L 22.84375 0 L 16.53125 0 L 11.1875 -36.25 L 10.796875 -36.25 L 10.9375 -15.234375 L 10.9375 0 Z M 2.53125 0 "/></g></g></g><g fill="#ff0371" fill-opacity="1"><g transform="translate(119.243068, 152.922188)"><g><path d="M 15.625 0.578125 C 10.582031 0.578125 7.019531 -1.4375 4.9375 -5.46875 C 2.863281 -9.5 1.828125 -15.59375 1.828125 -23.75 C 1.828125 -31.90625 2.863281 -38 4.9375 -42.03125 C 7.019531 -46.070312 10.582031 -48.09375 15.625 -48.09375 C 20.695312 -48.09375 24.273438 -46.0625 26.359375 -42 C 28.441406 -37.945312 29.484375 -31.863281 29.484375 -23.75 C 29.484375 -15.59375 28.441406 -9.5 26.359375 -5.46875 C 24.273438 -1.4375 20.695312 0.578125 15.625 0.578125 Z M 15.625 -7.15625 C 17.613281 -7.15625 18.921875 -8.578125 19.546875 -11.421875 C 20.179688 -14.265625 20.5 -18.375 20.5 -23.75 C 20.5 -29.476562 20.148438 -33.664062 19.453125 -36.3125 C 18.765625 -38.957031 17.488281 -40.28125 15.625 -40.28125 C 13.664062 -40.28125 12.382812 -38.867188 11.78125 -36.046875 C 11.175781 -33.234375 10.875 -29.132812 10.875 -23.75 C 10.875 -18.019531 11.195312 -13.820312 11.84375 -11.15625 C 12.5 -8.488281 13.757812 -7.15625 15.625 -7.15625 Z M 15.625 -7.15625 "/></g></g></g><g fill="#ff0371" fill-opacity="1"><g transform="translate(150.540231, 152.922188)"><g><path d="M 1.234375 -27.390625 L 1.234375 -32.140625 L 2.53125 -32.140625 C 3.925781 -32.179688 4.90625 -32.539062 5.46875 -33.21875 C 6.03125 -33.894531 6.3125 -34.816406 6.3125 -35.984375 L 6.3125 -38.328125 L 2.21875 -38.328125 L 2.21875 -47.4375 L 10.796875 -47.4375 L 10.796875 -35.59375 C 10.796875 -32.507812 10.09375 -30.394531 8.6875 -29.25 C 7.28125 -28.101562 5.445312 -27.503906 3.1875 -27.453125 Z M 1.234375 -27.390625 "/></g></g></g><g fill="#ff0371" fill-opacity="1"><g transform="translate(163.358405, 152.922188)"><g><path d="M 13.984375 0.578125 C 10.910156 0.578125 8.441406 -0.0546875 6.578125 -1.328125 C 4.710938 -2.609375 3.351562 -4.421875 2.5 -6.765625 C 1.65625 -9.109375 1.234375 -11.820312 1.234375 -14.90625 L 9.046875 -14.90625 C 9.046875 -11.601562 9.457031 -9.332031 10.28125 -8.09375 C 11.101562 -6.863281 12.253906 -6.25 13.734375 -6.25 C 15.160156 -6.25 16.164062 -6.757812 16.75 -7.78125 C 17.34375 -8.800781 17.640625 -10.15625 17.640625 -11.84375 C 17.640625 -13.363281 17.390625 -14.632812 16.890625 -15.65625 C 16.390625 -16.675781 15.628906 -17.570312 14.609375 -18.34375 C 13.585938 -19.125 12.34375 -19.953125 10.875 -20.828125 C 9.351562 -21.734375 7.882812 -22.769531 6.46875 -23.9375 C 5.0625 -25.113281 3.910156 -26.613281 3.015625 -28.4375 C 2.128906 -30.257812 1.6875 -32.601562 1.6875 -35.46875 C 1.6875 -39.757812 2.800781 -42.925781 5.03125 -44.96875 C 7.269531 -47.007812 10.171875 -48.03125 13.734375 -48.03125 C 17.804688 -48.03125 20.894531 -46.867188 23 -44.546875 C 25.101562 -42.222656 26.15625 -38.566406 26.15625 -33.578125 L 18.21875 -33.578125 C 18.21875 -36.523438 17.867188 -38.550781 17.171875 -39.65625 C 16.484375 -40.769531 15.46875 -41.328125 14.125 -41.328125 C 12.820312 -41.328125 11.890625 -40.835938 11.328125 -39.859375 C 10.765625 -38.878906 10.484375 -37.585938 10.484375 -35.984375 C 10.484375 -34.421875 10.71875 -33.148438 11.1875 -32.171875 C 11.664062 -31.203125 12.378906 -30.359375 13.328125 -29.640625 C 14.285156 -28.921875 15.460938 -28.148438 16.859375 -27.328125 C 18.585938 -26.335938 20.191406 -25.203125 21.671875 -23.921875 C 23.148438 -22.640625 24.34375 -21.097656 25.25 -19.296875 C 26.15625 -17.492188 26.609375 -15.25 26.609375 -12.5625 C 26.609375 -8.09375 25.476562 -4.785156 23.21875 -2.640625 C 20.96875 -0.492188 17.890625 0.578125 13.984375 0.578125 Z M 13.984375 0.578125 "/></g></g></g></svg>