<svg xmlns="http://www.w3.org/2000/svg" xmlns:xlink="http://www.w3.org/1999/xlink" width="300" zoomAndPan="magnify" viewBox="0 0 224.87999 225" height="300" preserveAspectRatio="xMidYMid meet" version="1.0"><defs><g/><clipPath id="5fded77b04"><path d="M 2 4 L 224 4 L 224 220 L 2 220 Z M 2 4 " clip-rule="nonzero"/></clipPath><clipPath id="56902374b7"><path d="M -95.488281 102.640625 L 112.8125 -96.019531 L 311.472656 112.28125 L 103.171875 310.941406 Z M -95.488281 102.640625 " clip-rule="nonzero"/></clipPath><clipPath id="259840dcc0"><path d="M -95.488281 102.640625 L 112.8125 -96.019531 L 311.472656 112.28125 L 103.171875 310.941406 Z M -95.488281 102.640625 " clip-rule="nonzero"/></clipPath><clipPath id="a510aae5b1"><path d="M -95.488281 102.640625 L 112.8125 -96.019531 L 311.472656 112.28125 L 103.171875 310.941406 Z M -95.488281 102.640625 " clip-rule="nonzero"/></clipPath></defs><g clip-path="url(#5fded77b04)"><g clip-path="url(#56902374b7)"><g clip-path="url(#259840dcc0)"><g clip-path="url(#a510aae5b1)"><path fill="#ffffff" d="M 84.109375 5.242188 C 105.550781 7.601562 123.742188 14.996094 139.652344 24.085938 C 155.347656 33.160156 168.753906 43.921875 185.28125 56.9375 C 201.816406 70.167969 221.675781 85.652344 223.421875 102.5625 C 225.066406 119.550781 208.722656 137.863281 195.539062 156.382812 C 182.445312 175.015625 172.246094 193.75 156.332031 205.132812 C 140.429688 216.296875 118.648438 220.089844 96.667969 218.976562 C 74.667969 218.058594 52.402344 212.125 37.988281 198.367188 C 23.574219 184.628906 17.03125 163.046875 11.746094 142.03125 C 6.359375 121.117188 2.253906 100.988281 2.828125 78.878906 C 3.316406 56.679688 8.390625 32.410156 23.253906 19.027344 C 38.015625 5.5625 62.683594 2.878906 84.109375 5.242188 " fill-opacity="1" fill-rule="nonzero"/></g></g></g></g><g fill="#ff0371" fill-opacity="1"><g transform="translate(49.369283, 102.652202)"><g><path d="M 1.359375 0 L 1.359375 -6.890625 L 15.6875 -39.5625 L 2.140625 -39.5625 L 2.140625 -47.4375 L 25.703125 -47.4375 L 25.703125 -40.546875 L 11.328125 -7.875 L 25.84375 -7.875 L 25.84375 0 Z M 1.359375 0 "/></g></g></g><g fill="#ff0371" fill-opacity="1"><g transform="translate(76.567239, 102.652202)"><g><path d="M 2.53125 0 L 2.53125 -47.4375 L 22.328125 -47.4375 L 22.328125 -39.625 L 11.328125 -39.625 L 11.328125 -27.921875 L 21.078125 -27.921875 L 21.078125 -20.625 L 11.328125 -20.625 L 11.328125 -7.8125 L 22.328125 -7.8125 L 22.328125 0 Z M 2.53125 0 "/></g></g></g><g fill="#ff0371" fill-opacity="1"><g transform="translate(100.121442, 102.652202)"><g><path d="M 2.53125 0 L 2.53125 -47.4375 L 14.3125 -47.4375 C 17.132812 -47.4375 19.578125 -47.015625 21.640625 -46.171875 C 23.703125 -45.328125 25.285156 -43.914062 26.390625 -41.9375 C 27.492188 -39.96875 28.046875 -37.3125 28.046875 -33.96875 C 28.046875 -31.019531 27.566406 -28.578125 26.609375 -26.640625 C 25.660156 -24.710938 24.335938 -23.425781 22.640625 -22.78125 L 22.640625 -22.328125 C 24.378906 -21.972656 25.59375 -20.925781 26.28125 -19.1875 C 26.976562 -17.457031 27.328125 -15.3125 27.328125 -12.75 L 27.328125 -4.8125 C 27.328125 -2.988281 27.476562 -1.382812 27.78125 0 L 18.8125 0 C 18.59375 -0.695312 18.445312 -1.457031 18.375 -2.28125 C 18.3125 -3.101562 18.28125 -3.796875 18.28125 -4.359375 L 18.28125 -11.90625 C 18.28125 -13.6875 18.0625 -15.128906 17.625 -16.234375 C 17.195312 -17.335938 16.351562 -17.890625 15.09375 -17.890625 L 11.390625 -17.890625 L 11.390625 0 Z M 11.390625 -24.921875 L 13.984375 -24.921875 C 15.941406 -24.921875 17.273438 -25.582031 17.984375 -26.90625 C 18.703125 -28.226562 19.0625 -30.019531 19.0625 -32.28125 C 19.0625 -34.789062 18.671875 -36.640625 17.890625 -37.828125 C 17.109375 -39.023438 15.742188 -39.625 13.796875 -39.625 L 11.390625 -39.625 Z M 11.390625 -24.921875 "/></g></g></g><g fill="#ff0371" fill-opacity="1"><g transform="translate(129.336471, 102.652202)"><g><path d="M 15.625 0.578125 C 10.582031 0.578125 7.019531 -1.4375 4.9375 -5.46875 C 2.863281 -9.5 1.828125 -15.59375 1.828125 -23.75 C 1.828125 -31.90625 2.863281 -38 4.9375 -42.03125 C 7.019531 -46.070312 10.582031 -48.09375 15.625 -48.09375 C 20.695312 -48.09375 24.273438 -46.0625 26.359375 -42 C 28.441406 -37.945312 29.484375 -31.863281 29.484375 -23.75 C 29.484375 -15.59375 28.441406 -9.5 26.359375 -5.46875 C 24.273438 -1.4375 20.695312 0.578125 15.625 0.578125 Z M 15.625 -7.15625 C 17.613281 -7.15625 18.921875 -8.578125 19.546875 -11.421875 C 20.179688 -14.265625 20.5 -18.375 20.5 -23.75 C 20.5 -29.476562 20.148438 -33.664062 19.453125 -36.3125 C 18.765625 -38.957031 17.488281 -40.28125 15.625 -40.28125 C 13.664062 -40.28125 12.382812 -38.867188 11.78125 -36.046875 C 11.175781 -33.234375 10.875 -29.132812 10.875 -23.75 C 10.875 -18.019531 11.195312 -13.820312 11.84375 -11.15625 C 12.5 -8.488281 13.757812 -7.15625 15.625 -7.15625 Z M 15.625 -7.15625 "/></g></g></g><g fill="#ff0371" fill-opacity="1"><g transform="translate(30.529828, 157.202641)"><g><path d="M 13.984375 0.578125 C 10.910156 0.578125 8.441406 -0.0546875 6.578125 -1.328125 C 4.710938 -2.609375 3.351562 -4.421875 2.5 -6.765625 C 1.65625 -9.109375 1.234375 -11.820312 1.234375 -14.90625 L 9.046875 -14.90625 C 9.046875 -11.601562 9.457031 -9.332031 10.28125 -8.09375 C 11.101562 -6.863281 12.253906 -6.25 13.734375 -6.25 C 15.160156 -6.25 16.164062 -6.757812 16.75 -7.78125 C 17.34375 -8.800781 17.640625 -10.15625 17.640625 -11.84375 C 17.640625 -13.363281 17.390625 -14.632812 16.890625 -15.65625 C 16.390625 -16.675781 15.628906 -17.570312 14.609375 -18.34375 C 13.585938 -19.125 12.34375 -19.953125 10.875 -20.828125 C 9.351562 -21.734375 7.882812 -22.769531 6.46875 -23.9375 C 5.0625 -25.113281 3.910156 -26.613281 3.015625 -28.4375 C 2.128906 -30.257812 1.6875 -32.601562 1.6875 -35.46875 C 1.6875 -39.757812 2.800781 -42.925781 5.03125 -44.96875 C 7.269531 -47.007812 10.171875 -48.03125 13.734375 -48.03125 C 17.804688 -48.03125 20.894531 -46.867188 23 -44.546875 C 25.101562 -42.222656 26.15625 -38.566406 26.15625 -33.578125 L 18.21875 -33.578125 C 18.21875 -36.523438 17.867188 -38.550781 17.171875 -39.65625 C 16.484375 -40.769531 15.46875 -41.328125 14.125 -41.328125 C 12.820312 -41.328125 11.890625 -40.835938 11.328125 -39.859375 C 10.765625 -38.878906 10.484375 -37.585938 10.484375 -35.984375 C 10.484375 -34.421875 10.71875 -33.148438 11.1875 -32.171875 C 11.664062 -31.203125 12.378906 -30.359375 13.328125 -29.640625 C 14.285156 -28.921875 15.460938 -28.148438 16.859375 -27.328125 C 18.585938 -26.335938 20.191406 -25.203125 21.671875 -23.921875 C 23.148438 -22.640625 24.34375 -21.097656 25.25 -19.296875 C 26.15625 -17.492188 26.609375 -15.25 26.609375 -12.5625 C 26.609375 -8.09375 25.476562 -4.785156 23.21875 -2.640625 C 20.96875 -0.492188 17.890625 0.578125 13.984375 0.578125 Z M 13.984375 0.578125 "/></g></g></g><g fill="#ff0371" fill-opacity="1"><g transform="translate(58.24831, 157.202641)"><g><path d="M 15.234375 0.578125 C 10.847656 0.578125 7.59375 -0.765625 5.46875 -3.453125 C 3.34375 -6.140625 2.28125 -9.738281 2.28125 -14.25 L 2.28125 -47.4375 L 11.125 -47.4375 L 11.125 -14.1875 C 11.125 -11.664062 11.503906 -9.925781 12.265625 -8.96875 C 13.023438 -8.019531 14.035156 -7.546875 15.296875 -7.546875 C 16.722656 -7.546875 17.78125 -8.078125 18.46875 -9.140625 C 19.164062 -10.203125 19.515625 -11.882812 19.515625 -14.1875 L 19.515625 -47.4375 L 28.25 -47.4375 L 28.25 -14.25 C 28.25 -9.300781 27.085938 -5.59375 24.765625 -3.125 C 22.441406 -0.65625 19.265625 0.578125 15.234375 0.578125 Z M 15.234375 0.578125 "/></g></g></g><g fill="#ff0371" fill-opacity="1"><g transform="translate(88.76467, 157.202641)"><g><path d="M 15.6875 0.578125 C 12.21875 0.578125 9.472656 -0.34375 7.453125 -2.1875 C 5.429688 -4.03125 3.988281 -6.78125 3.125 -10.4375 C 2.257812 -14.101562 1.828125 -18.609375 1.828125 -23.953125 C 1.828125 -28.765625 2.160156 -32.734375 2.828125 -35.859375 C 3.503906 -38.984375 4.46875 -41.429688 5.71875 -43.203125 C 6.976562 -44.984375 8.460938 -46.242188 10.171875 -46.984375 C 11.890625 -47.722656 13.789062 -48.09375 15.875 -48.09375 C 20.4375 -48.09375 23.722656 -46.570312 25.734375 -43.53125 C 27.753906 -40.5 28.804688 -36.269531 28.890625 -30.84375 L 20.375 -30.84375 C 20.28125 -34.363281 19.863281 -36.816406 19.125 -38.203125 C 18.394531 -39.585938 17.269531 -40.28125 15.75 -40.28125 C 13.800781 -40.28125 12.5 -39.03125 11.84375 -36.53125 C 11.195312 -34.039062 10.875 -29.847656 10.875 -23.953125 C 10.875 -17.921875 11.207031 -13.613281 11.875 -11.03125 C 12.550781 -8.445312 13.863281 -7.15625 15.8125 -7.15625 C 17.550781 -7.15625 18.742188 -7.96875 19.390625 -9.59375 C 20.046875 -11.226562 20.375 -13.5625 20.375 -16.59375 L 20.375 -18.671875 L 15.484375 -18.671875 L 15.484375 -25.515625 L 28.890625 -25.515625 L 28.890625 -16.328125 C 28.890625 -12.296875 28.328125 -9.039062 27.203125 -6.5625 C 26.078125 -4.09375 24.523438 -2.285156 22.546875 -1.140625 C 20.578125 0.00390625 18.289062 0.578125 15.6875 0.578125 Z M 15.6875 0.578125 "/></g></g></g><g fill="#ff0371" fill-opacity="1"><g transform="translate(119.736497, 157.202641)"><g><path d="M 0.71875 0 L 8.984375 -47.4375 L 21.40625 -47.4375 L 29.734375 0 L 20.953125 0 L 19.453125 -9.375 L 10.9375 -9.375 L 9.4375 0 Z M 11.71875 -16.40625 L 18.609375 -16.40625 L 16.65625 -29.609375 L 15.421875 -39.046875 L 14.96875 -39.046875 L 13.859375 -29.546875 Z M 11.71875 -16.40625 "/></g></g></g><g fill="#ff0371" fill-opacity="1"><g transform="translate(150.252857, 157.202641)"><g><path d="M 2.53125 0 L 2.53125 -47.4375 L 14.3125 -47.4375 C 17.132812 -47.4375 19.578125 -47.015625 21.640625 -46.171875 C 23.703125 -45.328125 25.285156 -43.914062 26.390625 -41.9375 C 27.492188 -39.96875 28.046875 -37.3125 28.046875 -33.96875 C 28.046875 -31.019531 27.566406 -28.578125 26.609375 -26.640625 C 25.660156 -24.710938 24.335938 -23.425781 22.640625 -22.78125 L 22.640625 -22.328125 C 24.378906 -21.972656 25.59375 -20.925781 26.28125 -19.1875 C 26.976562 -17.457031 27.328125 -15.3125 27.328125 -12.75 L 27.328125 -4.8125 C 27.328125 -2.988281 27.476562 -1.382812 27.78125 0 L 18.8125 0 C 18.59375 -0.695312 18.445312 -1.457031 18.375 -2.28125 C 18.3125 -3.101562 18.28125 -3.796875 18.28125 -4.359375 L 18.28125 -11.90625 C 18.28125 -13.6875 18.0625 -15.128906 17.625 -16.234375 C 17.195312 -17.335938 16.351562 -17.890625 15.09375 -17.890625 L 11.390625 -17.890625 L 11.390625 0 Z M 11.390625 -24.921875 L 13.984375 -24.921875 C 15.941406 -24.921875 17.273438 -25.582031 17.984375 -26.90625 C 18.703125 -28.226562 19.0625 -30.019531 19.0625 -32.28125 C 19.0625 -34.789062 18.671875 -36.640625 17.890625 -37.828125 C 17.109375 -39.023438 15.742188 -39.625 13.796875 -39.625 L 11.390625 -39.625 Z M 11.390625 -24.921875 "/></g></g></g></svg>